<svg xmlns="http://www.w3.org/2000/svg" viewBox="0 0 640 240" role="img" aria-labelledby="title desc">
  <title id="title">Expert Systems logo</title>
  <desc id="desc">Stylized Expert Systems logo with red DNA and antibody icons and black text.</desc>
  <rect width="640" height="240" fill="none"/>
  <g fill="none" stroke="#111111" stroke-width="4" stroke-linejoin="round">
    <path d="M118 24h120l22 84-86 63-78-60z"/>
    <path d="M38 118l58-44 78 60-34 80H58z"/>
  </g>
  <g fill="none" stroke="#ff1d12" stroke-width="8" stroke-linecap="round">
    <path d="M174 34c0 18 0 18 13 30s13 12 13 24-13 18-26 30-26 24-26 36"/>
    <path d="M122 34c0 18 0 18 13 30s13 12 13 24-13 18-26 30-26 24-26 36"/>
    <path d="M122 34h52"/>
    <path d="M128 52h40"/>
    <path d="M118 70h60"/>
    <path d="M126 88h44"/>
    <path d="M118 106h60"/>
    <path d="M128 124h40"/>
    <path d="M122 142h52"/>
    <path d="M94 190V150"/>
    <path d="M116 190V150"/>
    <path d="M78 162l16-18"/>
    <path d="M132 162l-16-18"/>
    <path d="M70 154l18 30"/>
    <path d="M140 154l-18 30"/>
  </g>
  <g font-family="Arial, Helvetica, sans-serif" font-weight="700">
    <text x="278" y="128" font-size="74" fill="#111111">e</text>
    <text x="318" y="128" font-size="82" fill="#ff1d12">X</text>
    <text x="378" y="128" font-size="74" fill="#111111">pert</text>
    <text x="290" y="198" font-size="74" fill="#111111">s</text>
    <text x="328" y="198" font-size="82" fill="#ff1d12">Y</text>
    <text x="390" y="198" font-size="74" fill="#111111">stems</text>
  </g>
</svg>
